<?xml version="1.0" encoding="iso-8859-1"?>
<!-- Generator: Adobe Illustrator 16.0.0, SVG Export Plug-In . SVG Version: 6.00 Build 0)  -->
<!DOCTYPE svg PUBLIC "-//W3C//DTD SVG 1.1//EN" "http://www.w3.org/Graphics/SVG/1.1/DTD/svg11.dtd">
<svg version="1.1" id="Layer_1" xmlns="http://www.w3.org/2000/svg" xmlns:xlink="http://www.w3.org/1999/xlink" x="0px" y="0px"
	 width="778.075px" height="209px" viewBox="0 0 778.075 209" style="enable-background:new 0 0 778.075 209;" xml:space="preserve"
	>
<g>
	<g>
		<g>
			<path style="fill:#283584;" d="M653.085,20.47c3.498-2.205,7.794-2.555,11.829-2.463c-0.026,15.949-0.003,31.901-0.011,47.85
				c-0.04,2.967,0.077,5.938-0.063,8.902c-0.523,7.205-4.028,14.417-10.161,18.452c-6.461,4.348-14.634,5.084-22.2,4.374
				c-6.141-0.74-12.631-2.628-16.935-7.33c-4.687-5.243-6.899-12.308-7.15-19.248c-0.265-7.083,0.552-14.417,3.752-20.827
				c2.772-5.585,7.628-10.29,13.67-12.116c4.716-1.395,9.922-1.605,14.598,0.074c3.726,1.322,6.711,4.086,9.031,7.219
				c0.004-6.17-0.018-12.337,0.008-18.507C649.466,24.281,650.898,21.811,653.085,20.47z M633.528,50.674
				c-2.349,0.571-4.51,1.948-5.894,3.943c-2.132,3.066-3.181,6.774-3.457,10.47c-0.309,3.921-0.037,7.952,1.222,11.7
				c1.093,3.196,3.148,6.333,6.402,7.621c4.536,1.789,10.364,1.097,13.74-2.636c2.695-3.044,3.902-7.124,4.215-11.111
				c0.206-3.95,0.044-8.011-1.336-11.762c-1.068-3.008-3.144-5.74-6.005-7.234C639.731,50.17,636.477,49.99,633.528,50.674z"/>
		</g>
		<g>
			<path style="fill:#283584;" d="M115.946,21.973c19.17-1.167,38.546,0.449,57.179,5.162c15.802,4.046,31.146,10.305,44.732,19.402
				c10.132,6.8,19.299,15.261,26.047,25.48c6.005,9.108,9.778,19.733,10.515,30.639c0.501,7.89,0.493,15.901-1.303,23.643
				c-3.104,14.06-10.809,26.817-20.842,37.03c-8.954,9.178-19.63,16.604-31.124,22.251c-15.01,7.315-31.338,11.708-47.872,13.835
				c-17.959,2.264-36.256,2.19-54.142-0.692c-23.036-3.737-45.648-12.035-64.458-26.051c-9.421-7.065-17.808-15.65-24-25.709
				c-4.271-6.943-7.455-14.586-9.116-22.579c-0.618-2.798-0.862-5.655-1.384-8.468c0.571-3.022,0.162-6.115,0.298-9.171
				c0.125-1.137-0.401-2.228-0.313-3.346c0.663-2.681,0.711-5.464,1.274-8.163C3.41,83.842,8.98,73.287,16.439,64.536
				c9.381-11.056,21.49-19.516,34.39-25.981C71.078,28.574,93.473,23.35,115.946,21.973z M54.599,41.938
				c-7.267,3.52-14.318,7.573-20.69,12.554c1.984,0.884,4.061,1.539,6.104,2.268c9.819,3.247,19.77,6.233,29.965,8.048
				c2.382,0.225,4.797,0.272,7.187,0.096c7.264-1.116,14.152-4.318,21.582-4.425c1.046,0.107,1.804-0.71,2.581-1.274
				c6.984-5.53,15.768-8.563,24.626-9.049c2.334-0.283,4.712-0.427,7.054-0.092c7.798,0.464,15.426,2.665,22.572,5.765
				c7.569,3.741,15.765,6.277,24.181,7.131c7.268,0.563,14.642,0.247,21.747-1.477c6.667-1.564,13.195-3.869,19.295-6.991
				c-1.359-1.204-2.861-2.22-4.344-3.254c-12.16-8.354-25.874-14.277-40.034-18.305c-14.358-4.024-29.232-6.207-44.139-6.435
				c-3.56-0.394-7.128-0.066-10.688,0.018C98.572,27.241,75.485,32.042,54.599,41.938z M115.714,57.029
				c-4.926,1.576-9.432,4.296-13.349,7.65c-6.156,5.243-11.358,11.457-16.932,17.289c-0.571,0.556-1.023,1.215-1.388,1.922
				c0.869,0.91,1.929,1.62,3.126,2.018c3.306,1.152,6.947,1.149,10.331,0.332c2.452-0.688,4.587-2.154,6.638-3.612
				c5.578-3.991,10.574-8.843,16.685-12.05c4.996-2.596,11.196-3.35,16.387-0.865c5.095,2.489,9.425,6.233,13.799,9.786
				c13.857,11.575,27.509,23.397,41.076,35.314c18.224-7.9,37.254-13.953,56.704-18.006c-0.534-3.531-1.51-6.984-2.754-10.327
				c-4.245-11.177-11.877-20.823-20.912-28.543c-11.648,5.931-24.475,9.988-37.626,10.224c-10.713,0.243-21.416-2.143-31.168-6.535
				c-4.911-2.408-10.095-4.267-15.433-5.467C132.627,54.205,123.817,54.452,115.714,57.029z M22.842,64.344
				C14.355,73.327,7.765,84.567,6.035,96.945c3.538,0.924,7.083,1.819,10.655,2.614c8.737,2.128,17.407,4.591,25.797,7.846
				c5.471,2.165,10.92,4.573,15.724,8.019c2.636-2.525,6.384-3.888,10.029-3.435c3.144,0.35,6.13,1.966,8.133,4.422
				c0.961-0.527,1.9-1.108,2.919-1.513c4.458-1.79,9.786-1.071,13.743,1.594c1.66,1.046,2.736,2.703,3.873,4.234
				c5.062-1.605,11.085-0.232,14.719,3.7c2.563,2.842,3.281,6.83,3.056,10.541c5.611-0.247,11.166,3.104,13.537,8.195
				c1.926,3.869,1.911,8.578,0.092,12.48c3.84,1.94,8.291,3.586,12.613,2.349c1.285-0.391,2.905-0.92,3.376-2.312
				c-3.365-3.936-6.966-7.684-10.393-11.568c-0.538-0.673-1.001-1.822-0.188-2.474c0.902-0.74,2.095-0.118,2.846,0.541
				c4.01,3.329,7.75,6.974,11.409,10.681c1.233,1.348,3.236,1.336,4.919,1.252c2.665-0.147,5.254-1.653,6.513-4.032
				c0.832-1.583,0.206-3.523-0.943-4.768c-3.925-4.407-7.842-8.825-11.781-13.221c-0.633-0.663-1.193-1.782-0.497-2.603
				c0.898-0.862,2.198-0.21,2.993,0.467c4.171,3.413,7.89,7.33,11.789,11.038c1.204,1.141,2.231,2.614,3.903,3.096
				c3.284,1.27,6.973-0.044,9.51-2.268c1.631-1.38,2.684-3.542,2.4-5.707c-0.239-1.719-1.318-3.185-2.515-4.385
				c-4.978-4.955-9.926-9.937-14.907-14.888c-0.663-0.7-1.48-1.384-1.686-2.368c-0.228-0.861,0.541-1.796,1.439-1.697
				c1.075,0.118,1.874,0.946,2.684,1.59c5.927,5.106,11.696,10.393,17.477,15.665c3.659,3.159,9.878,1.797,12.389-2.172
				c1.642-2.765,0.563-6.461-1.786-8.464c-13.383-11.652-26.762-23.312-40.358-34.714c-3.247-2.658-6.424-5.419-9.903-7.776
				c-2.92-1.962-6.307-3.615-9.918-3.409c-4.02,0.159-7.595,2.253-10.901,4.352c-5.106,3.248-9.465,7.522-14.616,10.703
				c-2.305,1.443-4.864,2.584-7.595,2.857c-4.013,0.409-8.155-0.033-11.917-1.528c-2.176-0.902-4.377-2.349-5.246-4.639
				c-0.685-1.871-0.026-3.98,1.303-5.394c4.26-4.602,8.497-9.23,12.805-13.788c-6.148,1.094-12.01,3.767-18.327,3.862
				c-4.444-0.022-8.869-0.585-13.191-1.612c-11.063-2.603-21.931-6.057-32.464-10.327C27.182,59.963,24.988,62.131,22.842,64.344z
				 M5.398,102.464c-0.11,6.42,0.788,12.882,2.886,18.964c3.498,10.353,10.032,19.446,17.833,27
				c12.411,11.874,27.771,20.319,43.87,26.066c13.073,4.628,26.751,7.5,40.549,8.77c4.639,0.589,9.337,0.497,13.99,0.858
				c2.323-0.284,4.657-0.151,6.984,0c2.688-0.313,5.401-0.199,8.103-0.394c23.437-1.517,46.889-7.268,67.517-18.717
				c12.293-6.859,23.617-15.897,31.732-27.505c7.142-10.176,11.358-22.66,10.544-35.159c-3.232,0.313-6.343,1.322-9.51,1.999
				c-15.025,3.789-29.913,8.321-44.205,14.344c1.016,1.984,1.734,4.189,1.609,6.446c-0.052,4.017-2.577,7.735-6.071,9.613
				c-2.835,1.715-6.211,2.154-9.458,1.819c-0.269,1.841-0.434,3.763-1.381,5.408c-1.756,3.229-4.937,5.526-8.368,6.715
				c-2.209,0.835-4.621,0.696-6.929,0.512c-0.965,4.437-4.856,7.617-8.979,9.061c-2.438,0.895-5.077,0.585-7.57,0.144
				c-0.545,0.442-0.876,1.075-1.178,1.697c-1.432,0.883-2.791,1.94-4.462,2.349c-5.342,1.782-11.159,0.361-16.037-2.113
				c-0.578-0.257-1.369-0.839-1.896-0.169c-2.61,2.386-6.108,3.873-9.668,3.803c-4.536,0.177-9.049-2.087-11.752-5.707
				c-0.773-1.005-1.314-2.157-2.014-3.207c-1.672,0.781-3.582,0.596-5.368,0.49c-4.517-0.77-8.806-3.608-10.71-7.871
				c-2.573,0.294-5.294,0.338-7.676-0.825c-4.388-1.782-7.79-5.75-8.744-10.408c-2.794,0.324-5.736,0.033-8.195-1.425
				c-4.503-2.408-7.105-7.856-6.123-12.871c0.088-0.938,0.655-1.841,0.449-2.791c-3.078-2.238-6.561-3.851-10.029-5.39
				c-12.311-5.272-25.366-8.501-38.396-11.435C6.304,102.453,5.847,102.464,5.398,102.464z M59.392,122.54
				c-0.526,2.087-0.037,4.385,1.222,6.123c1.712,2.47,4.996,3.81,7.934,3.059c1.653-0.335,3.034-1.358,4.23-2.496
				c0.302,0.435,0.95,0.799,0.802,1.406c-0.272,2.099-0.283,4.293,0.497,6.292c1.156,3.325,4.359,5.673,7.764,6.266
				c2.154,0.354,4.201-0.659,5.938-1.819c0.766-0.695,1.973,0.122,1.657,1.086c-0.397,2.404,0.685,4.878,2.629,6.31
				c2.01,1.439,4.517,2.606,7.043,2.209c1.955-0.199,3.188-1.855,4.793-2.728c1.362-0.298,1.358,1.358,1.443,2.257
				c0.313,5.269,5.574,9.443,10.765,8.799c4.907-0.416,9.027-4.948,8.895-9.889c0.033-4.896-4.101-9.326-8.961-9.73
				c-2.15-0.342-4.134,0.751-6.178,1.171c-0.902,0.129-1.204-1.038-0.884-1.697c0.928-2.603,1.539-5.441,0.902-8.188
				c-0.965-4.904-7.014-7.345-11.443-5.765c-1.325,0.445-2.338,1.439-3.409,2.29c-0.633,0.35-1.355-0.209-1.344-0.883
				c-0.21-2.441-1.219-4.967-3.343-6.347c-2.982-1.918-6.999-2.051-10.132-0.397c-2.437,1.185-4.083,3.391-5.544,5.592
				c-0.14-1.668-0.261-3.409-1.13-4.886c-1.531-2.919-5.128-4.602-8.346-3.807C62.375,117.378,60.007,119.716,59.392,122.54z"/>
		</g>
		<g>
			<path style="fill:#283584;" d="M686.933,39.932c6.093-3.303,13.283-3.844,20.076-3.203c6.185,0.593,12.389,3.03,16.633,7.694
				c5.059,5.582,7.897,12.959,8.357,20.44v5.291c-0.365,4.749-1.499,9.484-3.719,13.721c-2.179,4.098-5.143,7.919-9.16,10.353
				c-6.016,3.714-13.368,4.484-20.289,3.979c-6.259-0.438-12.635-2.581-17.131-7.113c-4.779-4.9-7.746-11.45-8.611-18.22
				c-1.068-7.871,0.118-16.21,4.182-23.113C679.596,45.749,682.777,42.107,686.933,39.932z M699.837,49.581
				c-2.651,0.379-5.176,1.649-6.969,3.648c-2.331,2.563-3.494,5.964-3.965,9.348c-0.538,3.91-0.475,7.923,0.375,11.785
				c0.744,3.262,2.286,6.498,4.963,8.6c2.695,2.191,6.347,2.846,9.734,2.503c2.938-0.261,5.828-1.542,7.809-3.766
				c1.992-2.253,3.163-5.132,3.722-8.063c0.762-4.064,0.751-8.269,0.015-12.337c-0.656-3.332-2.04-6.671-4.635-8.958
				C707.93,49.688,703.663,48.977,699.837,49.581z"/>
		</g>
		<path style="fill:#283584;" d="M300.74,42.192c5.349-4.517,12.746-6.13,19.594-5.166c5.313,0.725,10.312,3.516,13.637,7.735
			c3.682-4.385,9.049-7.304,14.763-7.864c6.266-0.596,12.952,0.773,17.967,4.738c4.363,3.387,7.116,8.538,8.177,13.906
			c0.88,3.995,0.615,8.1,0.652,12.153c0,9.79,0,19.579,0,29.368c-4.654,0.007-9.303-0.022-13.957,0.015
			c-0.096-11.759,0.019-23.518-0.055-35.273c-0.059-3.454-1.244-7.26-4.329-9.164c-4.308-2.555-10.493-1.915-13.839,1.94
			c-1.693,1.988-2.592,4.609-2.526,7.216c0.037,11.733-0.044,23.466,0.041,35.2c-4.701,0.147-9.414,0.022-14.119,0.063
			c0.004-11.752,0-23.507,0.004-35.259c-0.041-2.846-0.758-5.865-2.776-7.975c-4.087-3.943-11.523-3.542-15.264,0.704
			c-1.716,1.995-2.563,4.646-2.577,7.26c-0.026,11.763,0.04,23.522-0.033,35.285c-4.654-0.033-9.307,0-13.961-0.019
			c0.004-10.89,0-21.784,0-32.678c0.011-2.087-0.092-4.186,0.228-6.259C293.123,52.048,295.976,46.124,300.74,42.192z"/>
		<g>
			<path style="fill:#283584;" d="M399.632,39.398c4.337-1.992,9.164-2.695,13.906-2.614c5.692,0.169,11.52,1.458,16.291,4.687
				c6.236,4.282,10.15,11.458,11.14,18.891c0.504,3.744,0.486,7.532,0.453,11.302c-14.067,0.019-28.139-0.074-42.202,0.044
				c0.188,3.395,1.046,6.925,3.343,9.535c2.26,2.662,5.692,4.164,9.156,4.296c3.461,0.177,7.286,0.048,10.143-2.165
				c0.939-0.641,1.48-1.697,2.349-2.4c5.39-0.041,10.783-0.07,16.177,0.018c-1.211,4.234-4.009,7.802-7.234,10.707
				c-3.483,3.104-7.886,5.059-12.44,5.938c-5.206,0.976-10.629,0.969-15.783-0.287c-5.147-1.311-9.962-3.943-13.821-7.595
				c-4.458-4.433-6.447-10.736-7.01-16.869c-0.56-6.921-0.151-14.13,2.677-20.562C389.261,46.617,393.973,41.96,399.632,39.398z
				 M403.302,53.053c-2.132,2.315-3.17,5.39-3.715,8.438c8.674,0.092,17.351,0.015,26.029,0.04
				c-0.254-3.129-1.252-6.373-3.575-8.596c-2.875-2.879-7.179-3.899-11.137-3.479C408.059,49.71,405.198,50.855,403.302,53.053z"/>
		</g>
		<g>
			<path style="fill:#283584;" d="M559.62,41.095c5.696-3.888,12.912-4.525,19.619-4.267c5.235,0.258,10.47,1.491,15.124,3.943
				c2.677,1.443,4.793,3.881,5.832,6.745c1.171,3.019,1.252,6.307,1.197,9.502c0,6.387,0,12.771,0,19.159
				c-0.059,3.807-0.714,7.724-2.666,11.049c-2.154,3.818-5.817,6.583-9.826,8.217c-4.812,1.992-10.058,2.643-15.224,2.809
				c-3.88,0.044-7.827,0.044-11.604-0.946c-3.656-0.95-7.08-3.056-9.285-6.159c-2.098-2.931-2.931-6.616-2.853-10.18
				c-0.096-3.623,0.659-7.36,2.658-10.426c1.719-2.695,4.333-4.738,7.231-6.049c4.035-1.786,8.438-2.493,12.79-3.045
				c3.177-0.423,6.414-0.619,9.506-1.539c1.697-0.538,3.486-1.624,3.961-3.46c0.471-2.235-0.269-5.015-2.47-6.056
				c-2.603-1.296-5.604-1.348-8.442-1.271c-2.739,0.103-5.78,1.064-7.175,3.616c-0.92,1.299-1.023,2.967-1.646,4.352
				c-4.856,0.066-9.716,0.007-14.575,0.026C552.01,51.028,554.425,44.629,559.62,41.095z M569.166,73.136
				c-2.426,1.104-4.028,3.689-3.95,6.354c-0.133,2.301,0.567,4.922,2.654,6.185c2.772,1.852,6.373,1.576,9.436,0.685
				c2.934-0.958,5.964-2.596,7.345-5.508c1.97-3.928,1.377-8.423,1.465-12.661C580.995,71.413,574.534,70.57,569.166,73.136z"/>
		</g>
		<path style="fill:#283584;" d="M473.525,37.535c3.199-0.468,6.454-0.736,9.69-0.456c0,5.206,0,10.411,0,15.617
			c-4.02-0.446-8.31-0.556-12.042,1.226c-2.629,1.218-4.617,3.641-5.397,6.42c-1.219,4.167-0.935,8.56-0.968,12.845
			c-0.026,7.963,0.048,15.927-0.037,23.886c-5.095-0.011-10.191-0.041-15.282,0.015c-0.122-10.404-0.015-20.812-0.055-31.216
			c0.081-7.415,2.496-15.069,7.768-20.44C461.487,40.959,467.473,38.462,473.525,37.535z"/>
		<path style="fill:#283584;" d="M495.715,44.942c4.455-4.731,10.827-7.312,17.237-7.809c6.115-0.501,12.448,0.044,18.169,2.378
			c3.144,1.289,6.115,3.174,8.221,5.887c3.078,3.936,4.307,8.946,4.889,13.821c-5.489,0.029-10.978,0.011-16.468,0.011
			c-0.457-2.754-1.564-5.604-3.821-7.367c-2.717-2.018-6.354-2.334-9.594-1.734c-3.019,0.534-5.71,2.496-7.194,5.166
			c-2.275,3.961-2.632,8.667-2.603,13.136c-0.004,4.367,0.534,8.991,3.037,12.694c1.76,2.628,4.826,4.186,7.956,4.366
			c2.886,0.188,6.101-0.092,8.42-2.002c2.297-2.091,3.317-5.221,3.667-8.225c5.474-0.044,10.949-0.011,16.427-0.018
			c-0.534,6.45-3.888,12.488-8.652,16.788c-4.716,4.223-11.1,6.082-17.333,6.284c-6.248,0.184-12.794-0.6-18.242-3.88
			c-5.202-3.107-8.659-8.526-10.456-14.211c-1.797-5.839-1.981-12.072-1.256-18.103C488.874,55.825,491.256,49.555,495.715,44.942z"
			/>
		<path style="fill:#283584;" d="M393.995,108.512c3.048-2.105,6.892-2.982,10.566-2.731c-0.099,26.114,0,52.231-0.052,78.348
			c-4.819-0.033-9.642,0.052-14.458-0.044c0.044-22.605-0.004-45.207,0.026-67.812C390.1,113.262,391.492,110.25,393.995,108.512z"
			/>
		<path style="fill:#283584;" d="M419.873,105.641c5.128-0.059,10.26-0.015,15.389-0.025c0.007,5.091,0,10.18,0.007,15.271
			c-5.103,0.048-10.202-0.051-15.301,0.052C419.778,115.843,419.965,110.736,419.873,105.641z"/>
		<g>
			<path style="fill:#283584;" d="M453.431,107.938c3.479-2.095,7.687-2.422,11.656-2.319c0.018,9.149-0.03,18.298,0.026,27.446
				c1.443-2.032,3.122-3.932,5.239-5.287c4.12-2.872,9.403-3.531,14.288-2.857c5.659,0.641,10.979,3.63,14.509,8.092
				c4.536,5.519,6.435,12.72,6.863,19.737c0.479,6.841-0.273,13.983-3.545,20.109c-1.852,3.486-4.418,6.715-7.93,8.633
				c-5.883,3.313-12.827,4.314-19.501,4.009c-6.119-0.291-12.429-1.959-17.164-6.016c-5.099-4.3-7.941-10.927-8.254-17.524
				c-0.008-15.834-0.004-31.673-0.004-47.507C449.606,111.796,451.156,109.274,453.431,107.938z M475.193,138.256
				c-3.954,0.736-7.223,3.729-8.755,7.389c-1.476,3.387-1.848,7.139-1.819,10.794c0.063,4.296,1.009,8.762,3.648,12.245
				c1.811,2.496,4.782,4.017,7.834,4.274c3.306,0.361,6.947-0.32,9.425-2.684c2.872-2.714,4.112-6.686,4.624-10.504
				c0.545-4.709,0.324-9.631-1.487-14.063c-0.983-2.356-2.411-4.665-4.635-6.023C481.422,138.076,478.168,137.704,475.193,138.256z"
				/>
		</g>
		<path style="fill:#283584;" d="M536.893,125.072c3.221-0.46,6.502-0.777,9.753-0.442c-0.044,5.199,0.011,10.394-0.026,15.592
			c-3.98-0.438-8.217-0.567-11.925,1.178c-2.459,1.097-4.4,3.243-5.279,5.784c-1.171,3.306-1.215,6.87-1.193,10.334
			c-0.004,8.869,0.003,17.738-0.004,26.603c-5.121,0.004-10.242,0.004-15.36,0c-0.015-10.084,0-20.171-0.007-30.255
			c-0.055-7.43,2.29-15.139,7.47-20.61C524.619,128.614,530.723,126.026,536.893,125.072z"/>
		<g>
			<path style="fill:#283584;" d="M555.577,136.121c4.002-6.02,10.677-10.059,17.797-11.111c6.693-1.001,13.795-0.401,19.943,2.566
				c6.112,2.927,10.544,8.696,12.646,15.054c1.785,5.287,1.708,10.945,1.686,16.457c-13.931,0.003-27.859,0.022-41.783-0.011
				c0.018,4.182,1.432,8.667,4.864,11.295c2.573,2.087,5.971,2.75,9.211,2.71c3.159-0.059,6.623-0.604,8.965-2.919
				c0.615-0.53,0.979-1.355,1.693-1.752c5.324-0.033,10.647-0.026,15.971,0c-1.049,3.921-3.608,7.227-6.491,9.996
				c-3.751,3.604-8.703,5.791-13.806,6.619c-7.437,1.219-15.389,0.442-22.049-3.262c-3.505-1.977-6.852-4.462-9.057-7.882
				c-3.531-5.334-4.525-11.892-4.587-18.168C550.574,148.925,551.734,141.853,555.577,136.121z M570.712,139.803
				c-2.647,2.382-4.042,5.868-4.506,9.344c8.578,0.018,17.156,0.007,25.734,0.004c-0.158-2.798-0.972-5.663-2.809-7.835
				c-2.165-2.577-5.482-4.02-8.806-4.234C576.957,136.839,573.304,137.501,570.712,139.803z"/>
		</g>
		<path style="fill:#283584;" d="M419.877,184.088c0.074-19.358-0.077-38.719,0.077-58.074c5.128,0.088,10.264,0.004,15.396,0.044
			c0,19.354,0.007,38.708-0.004,58.063C430.189,184.107,425.035,184.169,419.877,184.088z"/>
	</g>
	<g>
		<path style="fill:#F9E000;" d="M54.599,41.938c20.886-9.896,43.973-14.697,66.998-15.422c3.56-0.085,7.127-0.412,10.688-0.018
			c14.907,0.228,29.78,2.411,44.139,6.435c14.159,4.028,27.874,9.952,40.034,18.305c1.484,1.035,2.986,2.05,4.344,3.254
			c-6.101,3.122-12.628,5.427-19.295,6.991c-7.105,1.723-14.48,2.04-21.747,1.477c-8.416-0.854-16.611-3.391-24.181-7.131
			c-7.146-3.1-14.774-5.301-22.572-5.765c-2.342-0.335-4.72-0.191-7.054,0.092c-8.858,0.486-17.642,3.52-24.626,9.049
			c-0.777,0.563-1.535,1.381-2.581,1.274c-7.429,0.107-14.318,3.31-21.582,4.425c-2.389,0.177-4.804,0.129-7.187-0.096
			c-10.194-1.815-20.146-4.801-29.965-8.048c-2.043-0.729-4.12-1.384-6.104-2.268C40.281,49.511,47.332,45.458,54.599,41.938z"/>
		<path style="fill:#F9E000;" d="M5.398,102.464c0.449,0,0.906-0.011,1.351,0.07c13.029,2.934,26.084,6.163,38.396,11.435
			c3.468,1.539,6.951,3.151,10.029,5.39c0.206,0.95-0.361,1.852-0.449,2.791c-0.983,5.015,1.62,10.463,6.123,12.871
			c2.459,1.458,5.401,1.749,8.195,1.425c0.954,4.657,4.355,8.626,8.744,10.408c2.382,1.164,5.103,1.12,7.676,0.825
			c1.903,4.263,6.192,7.102,10.71,7.871c1.786,0.106,3.696,0.291,5.368-0.49c0.699,1.049,1.24,2.202,2.014,3.207
			c2.702,3.619,7.216,5.883,11.752,5.707c3.56,0.07,7.058-1.417,9.668-3.803c0.527-0.67,1.318-0.088,1.896,0.169
			c4.878,2.474,10.695,3.895,16.037,2.113c1.671-0.409,3.03-1.465,4.462-2.349c0.302-0.623,0.633-1.255,1.178-1.697
			c2.492,0.442,5.132,0.751,7.57-0.144c4.123-1.443,8.015-4.624,8.979-9.061c2.308,0.184,4.72,0.324,6.929-0.512
			c3.431-1.189,6.612-3.487,8.368-6.715c0.946-1.646,1.112-3.567,1.381-5.408c3.247,0.335,6.623-0.104,9.458-1.819
			c3.494-1.877,6.02-5.596,6.071-9.613c0.125-2.257-0.593-4.462-1.609-6.446c14.292-6.023,29.18-10.555,44.205-14.344
			c3.166-0.677,6.277-1.686,9.51-1.999c0.814,12.499-3.402,24.983-10.544,35.159c-8.115,11.608-19.439,20.646-31.732,27.505
			c-20.628,11.45-44.08,17.201-67.517,18.717c-2.702,0.195-5.416,0.081-8.103,0.394c-2.327-0.151-4.661-0.284-6.984,0
			c-4.653-0.361-9.351-0.269-13.99-0.858c-13.799-1.27-27.476-4.142-40.549-8.77c-16.1-5.747-31.459-14.192-43.87-26.066
			c-7.801-7.555-14.336-16.648-17.833-27C6.186,115.346,5.288,108.884,5.398,102.464z"/>
	</g>
</g>
</svg>
